<mxfile host="app.diagrams.net" modified="2024-02-26T22:24:58.609Z" agent="Mozilla/5.0 (Windows NT 10.0; Win64; x64) AppleWebKit/537.36 (KHTML, like Gecko) Chrome/121.0.0.0 Safari/537.36" version="23.1.7" etag="VXHVNJQDlBfKedluHtHA" type="github">
  <diagram name="Page-1" id="dzGytf6mav1f3MxwMH1e">
    <mxGraphModel>
      <root>
        <mxCell id="0" />
        <mxCell id="1" parent="0" />
      </root>
    </mxGraphModel>
  </diagram>
</mxfile>
